%TF.GenerationSoftware,KiCad,Pcbnew,9.0.3*%
%TF.CreationDate,2025-07-28T00:11:01-05:00*%
%TF.ProjectId,eesa-pathfinder,65657361-2d70-4617-9468-66696e646572,rev?*%
%TF.SameCoordinates,Original*%
%TF.FileFunction,Legend,Top*%
%TF.FilePolarity,Positive*%
%FSLAX46Y46*%
G04 Gerber Fmt 4.6, Leading zero omitted, Abs format (unit mm)*
G04 Created by KiCad (PCBNEW 9.0.3) date 2025-07-28 00:11:01*
%MOMM*%
%LPD*%
G01*
G04 APERTURE LIST*
%ADD10C,0.100000*%
%ADD11C,0.150000*%
%ADD12C,0.101600*%
%ADD13C,0.120000*%
%ADD14C,0.127000*%
%ADD15C,0.200000*%
%ADD16C,0.504000*%
G04 APERTURE END LIST*
D10*
X147439800Y-99677068D02*
X147582657Y-99962782D01*
X147582657Y-99962782D02*
X147582657Y-100534211D01*
X147582657Y-100534211D02*
X147439800Y-100819925D01*
X147439800Y-100819925D02*
X147154085Y-100962782D01*
X147154085Y-100962782D02*
X146011228Y-100962782D01*
X146011228Y-100962782D02*
X145725514Y-100819925D01*
X145725514Y-100819925D02*
X145582657Y-100534211D01*
X145582657Y-100534211D02*
X145582657Y-99962782D01*
X145582657Y-99962782D02*
X145725514Y-99677068D01*
X145725514Y-99677068D02*
X146011228Y-99534211D01*
X146011228Y-99534211D02*
X146296942Y-99534211D01*
X146296942Y-99534211D02*
X146582657Y-100962782D01*
X147439800Y-97105639D02*
X147582657Y-97391353D01*
X147582657Y-97391353D02*
X147582657Y-97962782D01*
X147582657Y-97962782D02*
X147439800Y-98248496D01*
X147439800Y-98248496D02*
X147154085Y-98391353D01*
X147154085Y-98391353D02*
X146011228Y-98391353D01*
X146011228Y-98391353D02*
X145725514Y-98248496D01*
X145725514Y-98248496D02*
X145582657Y-97962782D01*
X145582657Y-97962782D02*
X145582657Y-97391353D01*
X145582657Y-97391353D02*
X145725514Y-97105639D01*
X145725514Y-97105639D02*
X146011228Y-96962782D01*
X146011228Y-96962782D02*
X146296942Y-96962782D01*
X146296942Y-96962782D02*
X146582657Y-98391353D01*
X147439800Y-95819924D02*
X147582657Y-95534210D01*
X147582657Y-95534210D02*
X147582657Y-94962781D01*
X147582657Y-94962781D02*
X147439800Y-94677067D01*
X147439800Y-94677067D02*
X147154085Y-94534210D01*
X147154085Y-94534210D02*
X147011228Y-94534210D01*
X147011228Y-94534210D02*
X146725514Y-94677067D01*
X146725514Y-94677067D02*
X146582657Y-94962781D01*
X146582657Y-94962781D02*
X146582657Y-95391353D01*
X146582657Y-95391353D02*
X146439800Y-95677067D01*
X146439800Y-95677067D02*
X146154085Y-95819924D01*
X146154085Y-95819924D02*
X146011228Y-95819924D01*
X146011228Y-95819924D02*
X145725514Y-95677067D01*
X145725514Y-95677067D02*
X145582657Y-95391353D01*
X145582657Y-95391353D02*
X145582657Y-94962781D01*
X145582657Y-94962781D02*
X145725514Y-94677067D01*
X147582657Y-91962782D02*
X146011228Y-91962782D01*
X146011228Y-91962782D02*
X145725514Y-92105639D01*
X145725514Y-92105639D02*
X145582657Y-92391353D01*
X145582657Y-92391353D02*
X145582657Y-92962782D01*
X145582657Y-92962782D02*
X145725514Y-93248496D01*
X147439800Y-91962782D02*
X147582657Y-92248496D01*
X147582657Y-92248496D02*
X147582657Y-92962782D01*
X147582657Y-92962782D02*
X147439800Y-93248496D01*
X147439800Y-93248496D02*
X147154085Y-93391353D01*
X147154085Y-93391353D02*
X146868371Y-93391353D01*
X146868371Y-93391353D02*
X146582657Y-93248496D01*
X146582657Y-93248496D02*
X146439800Y-92962782D01*
X146439800Y-92962782D02*
X146439800Y-92248496D01*
X146439800Y-92248496D02*
X146296942Y-91962782D01*
D11*
X133819819Y-83351666D02*
X133343628Y-83684999D01*
X133819819Y-83923094D02*
X132819819Y-83923094D01*
X132819819Y-83923094D02*
X132819819Y-83542142D01*
X132819819Y-83542142D02*
X132867438Y-83446904D01*
X132867438Y-83446904D02*
X132915057Y-83399285D01*
X132915057Y-83399285D02*
X133010295Y-83351666D01*
X133010295Y-83351666D02*
X133153152Y-83351666D01*
X133153152Y-83351666D02*
X133248390Y-83399285D01*
X133248390Y-83399285D02*
X133296009Y-83446904D01*
X133296009Y-83446904D02*
X133343628Y-83542142D01*
X133343628Y-83542142D02*
X133343628Y-83923094D01*
X132819819Y-83018332D02*
X132819819Y-82399285D01*
X132819819Y-82399285D02*
X133200771Y-82732618D01*
X133200771Y-82732618D02*
X133200771Y-82589761D01*
X133200771Y-82589761D02*
X133248390Y-82494523D01*
X133248390Y-82494523D02*
X133296009Y-82446904D01*
X133296009Y-82446904D02*
X133391247Y-82399285D01*
X133391247Y-82399285D02*
X133629342Y-82399285D01*
X133629342Y-82399285D02*
X133724580Y-82446904D01*
X133724580Y-82446904D02*
X133772200Y-82494523D01*
X133772200Y-82494523D02*
X133819819Y-82589761D01*
X133819819Y-82589761D02*
X133819819Y-82875475D01*
X133819819Y-82875475D02*
X133772200Y-82970713D01*
X133772200Y-82970713D02*
X133724580Y-83018332D01*
X140419524Y-79839295D02*
X140419524Y-79039295D01*
X140419524Y-79039295D02*
X140610000Y-79039295D01*
X140610000Y-79039295D02*
X140724286Y-79077390D01*
X140724286Y-79077390D02*
X140800476Y-79153580D01*
X140800476Y-79153580D02*
X140838571Y-79229771D01*
X140838571Y-79229771D02*
X140876667Y-79382152D01*
X140876667Y-79382152D02*
X140876667Y-79496438D01*
X140876667Y-79496438D02*
X140838571Y-79648819D01*
X140838571Y-79648819D02*
X140800476Y-79725009D01*
X140800476Y-79725009D02*
X140724286Y-79801200D01*
X140724286Y-79801200D02*
X140610000Y-79839295D01*
X140610000Y-79839295D02*
X140419524Y-79839295D01*
X141562381Y-79305961D02*
X141562381Y-79839295D01*
X141371905Y-79001200D02*
X141181428Y-79572628D01*
X141181428Y-79572628D02*
X141676667Y-79572628D01*
X97091667Y-90958200D02*
X97234524Y-91005819D01*
X97234524Y-91005819D02*
X97472619Y-91005819D01*
X97472619Y-91005819D02*
X97567857Y-90958200D01*
X97567857Y-90958200D02*
X97615476Y-90910580D01*
X97615476Y-90910580D02*
X97663095Y-90815342D01*
X97663095Y-90815342D02*
X97663095Y-90720104D01*
X97663095Y-90720104D02*
X97615476Y-90624866D01*
X97615476Y-90624866D02*
X97567857Y-90577247D01*
X97567857Y-90577247D02*
X97472619Y-90529628D01*
X97472619Y-90529628D02*
X97282143Y-90482009D01*
X97282143Y-90482009D02*
X97186905Y-90434390D01*
X97186905Y-90434390D02*
X97139286Y-90386771D01*
X97139286Y-90386771D02*
X97091667Y-90291533D01*
X97091667Y-90291533D02*
X97091667Y-90196295D01*
X97091667Y-90196295D02*
X97139286Y-90101057D01*
X97139286Y-90101057D02*
X97186905Y-90053438D01*
X97186905Y-90053438D02*
X97282143Y-90005819D01*
X97282143Y-90005819D02*
X97520238Y-90005819D01*
X97520238Y-90005819D02*
X97663095Y-90053438D01*
X97996429Y-90005819D02*
X98234524Y-91005819D01*
X98234524Y-91005819D02*
X98425000Y-90291533D01*
X98425000Y-90291533D02*
X98615476Y-91005819D01*
X98615476Y-91005819D02*
X98853572Y-90005819D01*
X99758333Y-91005819D02*
X99186905Y-91005819D01*
X99472619Y-91005819D02*
X99472619Y-90005819D01*
X99472619Y-90005819D02*
X99377381Y-90148676D01*
X99377381Y-90148676D02*
X99282143Y-90243914D01*
X99282143Y-90243914D02*
X99186905Y-90291533D01*
D12*
X152046520Y-107856190D02*
X151532473Y-107856190D01*
X151532473Y-107856190D02*
X151471997Y-107886428D01*
X151471997Y-107886428D02*
X151441759Y-107916666D01*
X151441759Y-107916666D02*
X151411520Y-107977142D01*
X151411520Y-107977142D02*
X151411520Y-108098095D01*
X151411520Y-108098095D02*
X151441759Y-108158571D01*
X151441759Y-108158571D02*
X151471997Y-108188809D01*
X151471997Y-108188809D02*
X151532473Y-108219047D01*
X151532473Y-108219047D02*
X152046520Y-108219047D01*
X151411520Y-108854047D02*
X151411520Y-108491190D01*
X151411520Y-108672618D02*
X152046520Y-108672618D01*
X152046520Y-108672618D02*
X151955806Y-108612142D01*
X151955806Y-108612142D02*
X151895330Y-108551666D01*
X151895330Y-108551666D02*
X151865092Y-108491190D01*
D11*
X124544524Y-79839295D02*
X124544524Y-79039295D01*
X124544524Y-79039295D02*
X124735000Y-79039295D01*
X124735000Y-79039295D02*
X124849286Y-79077390D01*
X124849286Y-79077390D02*
X124925476Y-79153580D01*
X124925476Y-79153580D02*
X124963571Y-79229771D01*
X124963571Y-79229771D02*
X125001667Y-79382152D01*
X125001667Y-79382152D02*
X125001667Y-79496438D01*
X125001667Y-79496438D02*
X124963571Y-79648819D01*
X124963571Y-79648819D02*
X124925476Y-79725009D01*
X124925476Y-79725009D02*
X124849286Y-79801200D01*
X124849286Y-79801200D02*
X124735000Y-79839295D01*
X124735000Y-79839295D02*
X124544524Y-79839295D01*
X125268333Y-79039295D02*
X125763571Y-79039295D01*
X125763571Y-79039295D02*
X125496905Y-79344057D01*
X125496905Y-79344057D02*
X125611190Y-79344057D01*
X125611190Y-79344057D02*
X125687381Y-79382152D01*
X125687381Y-79382152D02*
X125725476Y-79420247D01*
X125725476Y-79420247D02*
X125763571Y-79496438D01*
X125763571Y-79496438D02*
X125763571Y-79686914D01*
X125763571Y-79686914D02*
X125725476Y-79763104D01*
X125725476Y-79763104D02*
X125687381Y-79801200D01*
X125687381Y-79801200D02*
X125611190Y-79839295D01*
X125611190Y-79839295D02*
X125382619Y-79839295D01*
X125382619Y-79839295D02*
X125306428Y-79801200D01*
X125306428Y-79801200D02*
X125268333Y-79763104D01*
X117944819Y-83351666D02*
X117468628Y-83684999D01*
X117944819Y-83923094D02*
X116944819Y-83923094D01*
X116944819Y-83923094D02*
X116944819Y-83542142D01*
X116944819Y-83542142D02*
X116992438Y-83446904D01*
X116992438Y-83446904D02*
X117040057Y-83399285D01*
X117040057Y-83399285D02*
X117135295Y-83351666D01*
X117135295Y-83351666D02*
X117278152Y-83351666D01*
X117278152Y-83351666D02*
X117373390Y-83399285D01*
X117373390Y-83399285D02*
X117421009Y-83446904D01*
X117421009Y-83446904D02*
X117468628Y-83542142D01*
X117468628Y-83542142D02*
X117468628Y-83923094D01*
X117040057Y-82970713D02*
X116992438Y-82923094D01*
X116992438Y-82923094D02*
X116944819Y-82827856D01*
X116944819Y-82827856D02*
X116944819Y-82589761D01*
X116944819Y-82589761D02*
X116992438Y-82494523D01*
X116992438Y-82494523D02*
X117040057Y-82446904D01*
X117040057Y-82446904D02*
X117135295Y-82399285D01*
X117135295Y-82399285D02*
X117230533Y-82399285D01*
X117230533Y-82399285D02*
X117373390Y-82446904D01*
X117373390Y-82446904D02*
X117944819Y-83018332D01*
X117944819Y-83018332D02*
X117944819Y-82399285D01*
X116141667Y-110008200D02*
X116284524Y-110055819D01*
X116284524Y-110055819D02*
X116522619Y-110055819D01*
X116522619Y-110055819D02*
X116617857Y-110008200D01*
X116617857Y-110008200D02*
X116665476Y-109960580D01*
X116665476Y-109960580D02*
X116713095Y-109865342D01*
X116713095Y-109865342D02*
X116713095Y-109770104D01*
X116713095Y-109770104D02*
X116665476Y-109674866D01*
X116665476Y-109674866D02*
X116617857Y-109627247D01*
X116617857Y-109627247D02*
X116522619Y-109579628D01*
X116522619Y-109579628D02*
X116332143Y-109532009D01*
X116332143Y-109532009D02*
X116236905Y-109484390D01*
X116236905Y-109484390D02*
X116189286Y-109436771D01*
X116189286Y-109436771D02*
X116141667Y-109341533D01*
X116141667Y-109341533D02*
X116141667Y-109246295D01*
X116141667Y-109246295D02*
X116189286Y-109151057D01*
X116189286Y-109151057D02*
X116236905Y-109103438D01*
X116236905Y-109103438D02*
X116332143Y-109055819D01*
X116332143Y-109055819D02*
X116570238Y-109055819D01*
X116570238Y-109055819D02*
X116713095Y-109103438D01*
X117046429Y-109055819D02*
X117284524Y-110055819D01*
X117284524Y-110055819D02*
X117475000Y-109341533D01*
X117475000Y-109341533D02*
X117665476Y-110055819D01*
X117665476Y-110055819D02*
X117903572Y-109055819D01*
X118713095Y-109389152D02*
X118713095Y-110055819D01*
X118475000Y-109008200D02*
X118236905Y-109722485D01*
X118236905Y-109722485D02*
X118855952Y-109722485D01*
X93429524Y-79839295D02*
X93429524Y-79039295D01*
X93429524Y-79039295D02*
X93620000Y-79039295D01*
X93620000Y-79039295D02*
X93734286Y-79077390D01*
X93734286Y-79077390D02*
X93810476Y-79153580D01*
X93810476Y-79153580D02*
X93848571Y-79229771D01*
X93848571Y-79229771D02*
X93886667Y-79382152D01*
X93886667Y-79382152D02*
X93886667Y-79496438D01*
X93886667Y-79496438D02*
X93848571Y-79648819D01*
X93848571Y-79648819D02*
X93810476Y-79725009D01*
X93810476Y-79725009D02*
X93734286Y-79801200D01*
X93734286Y-79801200D02*
X93620000Y-79839295D01*
X93620000Y-79839295D02*
X93429524Y-79839295D01*
X94648571Y-79839295D02*
X94191428Y-79839295D01*
X94420000Y-79839295D02*
X94420000Y-79039295D01*
X94420000Y-79039295D02*
X94343809Y-79153580D01*
X94343809Y-79153580D02*
X94267619Y-79229771D01*
X94267619Y-79229771D02*
X94191428Y-79267866D01*
X109304524Y-79839295D02*
X109304524Y-79039295D01*
X109304524Y-79039295D02*
X109495000Y-79039295D01*
X109495000Y-79039295D02*
X109609286Y-79077390D01*
X109609286Y-79077390D02*
X109685476Y-79153580D01*
X109685476Y-79153580D02*
X109723571Y-79229771D01*
X109723571Y-79229771D02*
X109761667Y-79382152D01*
X109761667Y-79382152D02*
X109761667Y-79496438D01*
X109761667Y-79496438D02*
X109723571Y-79648819D01*
X109723571Y-79648819D02*
X109685476Y-79725009D01*
X109685476Y-79725009D02*
X109609286Y-79801200D01*
X109609286Y-79801200D02*
X109495000Y-79839295D01*
X109495000Y-79839295D02*
X109304524Y-79839295D01*
X110066428Y-79115485D02*
X110104524Y-79077390D01*
X110104524Y-79077390D02*
X110180714Y-79039295D01*
X110180714Y-79039295D02*
X110371190Y-79039295D01*
X110371190Y-79039295D02*
X110447381Y-79077390D01*
X110447381Y-79077390D02*
X110485476Y-79115485D01*
X110485476Y-79115485D02*
X110523571Y-79191676D01*
X110523571Y-79191676D02*
X110523571Y-79267866D01*
X110523571Y-79267866D02*
X110485476Y-79382152D01*
X110485476Y-79382152D02*
X110028333Y-79839295D01*
X110028333Y-79839295D02*
X110523571Y-79839295D01*
X149694819Y-83351666D02*
X149218628Y-83684999D01*
X149694819Y-83923094D02*
X148694819Y-83923094D01*
X148694819Y-83923094D02*
X148694819Y-83542142D01*
X148694819Y-83542142D02*
X148742438Y-83446904D01*
X148742438Y-83446904D02*
X148790057Y-83399285D01*
X148790057Y-83399285D02*
X148885295Y-83351666D01*
X148885295Y-83351666D02*
X149028152Y-83351666D01*
X149028152Y-83351666D02*
X149123390Y-83399285D01*
X149123390Y-83399285D02*
X149171009Y-83446904D01*
X149171009Y-83446904D02*
X149218628Y-83542142D01*
X149218628Y-83542142D02*
X149218628Y-83923094D01*
X149028152Y-82494523D02*
X149694819Y-82494523D01*
X148647200Y-82732618D02*
X149361485Y-82970713D01*
X149361485Y-82970713D02*
X149361485Y-82351666D01*
X102069819Y-83351666D02*
X101593628Y-83684999D01*
X102069819Y-83923094D02*
X101069819Y-83923094D01*
X101069819Y-83923094D02*
X101069819Y-83542142D01*
X101069819Y-83542142D02*
X101117438Y-83446904D01*
X101117438Y-83446904D02*
X101165057Y-83399285D01*
X101165057Y-83399285D02*
X101260295Y-83351666D01*
X101260295Y-83351666D02*
X101403152Y-83351666D01*
X101403152Y-83351666D02*
X101498390Y-83399285D01*
X101498390Y-83399285D02*
X101546009Y-83446904D01*
X101546009Y-83446904D02*
X101593628Y-83542142D01*
X101593628Y-83542142D02*
X101593628Y-83923094D01*
X102069819Y-82399285D02*
X102069819Y-82970713D01*
X102069819Y-82684999D02*
X101069819Y-82684999D01*
X101069819Y-82684999D02*
X101212676Y-82780237D01*
X101212676Y-82780237D02*
X101307914Y-82875475D01*
X101307914Y-82875475D02*
X101355533Y-82970713D01*
X116141667Y-90958200D02*
X116284524Y-91005819D01*
X116284524Y-91005819D02*
X116522619Y-91005819D01*
X116522619Y-91005819D02*
X116617857Y-90958200D01*
X116617857Y-90958200D02*
X116665476Y-90910580D01*
X116665476Y-90910580D02*
X116713095Y-90815342D01*
X116713095Y-90815342D02*
X116713095Y-90720104D01*
X116713095Y-90720104D02*
X116665476Y-90624866D01*
X116665476Y-90624866D02*
X116617857Y-90577247D01*
X116617857Y-90577247D02*
X116522619Y-90529628D01*
X116522619Y-90529628D02*
X116332143Y-90482009D01*
X116332143Y-90482009D02*
X116236905Y-90434390D01*
X116236905Y-90434390D02*
X116189286Y-90386771D01*
X116189286Y-90386771D02*
X116141667Y-90291533D01*
X116141667Y-90291533D02*
X116141667Y-90196295D01*
X116141667Y-90196295D02*
X116189286Y-90101057D01*
X116189286Y-90101057D02*
X116236905Y-90053438D01*
X116236905Y-90053438D02*
X116332143Y-90005819D01*
X116332143Y-90005819D02*
X116570238Y-90005819D01*
X116570238Y-90005819D02*
X116713095Y-90053438D01*
X117046429Y-90005819D02*
X117284524Y-91005819D01*
X117284524Y-91005819D02*
X117475000Y-90291533D01*
X117475000Y-90291533D02*
X117665476Y-91005819D01*
X117665476Y-91005819D02*
X117903572Y-90005819D01*
X118236905Y-90101057D02*
X118284524Y-90053438D01*
X118284524Y-90053438D02*
X118379762Y-90005819D01*
X118379762Y-90005819D02*
X118617857Y-90005819D01*
X118617857Y-90005819D02*
X118713095Y-90053438D01*
X118713095Y-90053438D02*
X118760714Y-90101057D01*
X118760714Y-90101057D02*
X118808333Y-90196295D01*
X118808333Y-90196295D02*
X118808333Y-90291533D01*
X118808333Y-90291533D02*
X118760714Y-90434390D01*
X118760714Y-90434390D02*
X118189286Y-91005819D01*
X118189286Y-91005819D02*
X118808333Y-91005819D01*
X97091667Y-110008200D02*
X97234524Y-110055819D01*
X97234524Y-110055819D02*
X97472619Y-110055819D01*
X97472619Y-110055819D02*
X97567857Y-110008200D01*
X97567857Y-110008200D02*
X97615476Y-109960580D01*
X97615476Y-109960580D02*
X97663095Y-109865342D01*
X97663095Y-109865342D02*
X97663095Y-109770104D01*
X97663095Y-109770104D02*
X97615476Y-109674866D01*
X97615476Y-109674866D02*
X97567857Y-109627247D01*
X97567857Y-109627247D02*
X97472619Y-109579628D01*
X97472619Y-109579628D02*
X97282143Y-109532009D01*
X97282143Y-109532009D02*
X97186905Y-109484390D01*
X97186905Y-109484390D02*
X97139286Y-109436771D01*
X97139286Y-109436771D02*
X97091667Y-109341533D01*
X97091667Y-109341533D02*
X97091667Y-109246295D01*
X97091667Y-109246295D02*
X97139286Y-109151057D01*
X97139286Y-109151057D02*
X97186905Y-109103438D01*
X97186905Y-109103438D02*
X97282143Y-109055819D01*
X97282143Y-109055819D02*
X97520238Y-109055819D01*
X97520238Y-109055819D02*
X97663095Y-109103438D01*
X97996429Y-109055819D02*
X98234524Y-110055819D01*
X98234524Y-110055819D02*
X98425000Y-109341533D01*
X98425000Y-109341533D02*
X98615476Y-110055819D01*
X98615476Y-110055819D02*
X98853572Y-109055819D01*
X99139286Y-109055819D02*
X99758333Y-109055819D01*
X99758333Y-109055819D02*
X99425000Y-109436771D01*
X99425000Y-109436771D02*
X99567857Y-109436771D01*
X99567857Y-109436771D02*
X99663095Y-109484390D01*
X99663095Y-109484390D02*
X99710714Y-109532009D01*
X99710714Y-109532009D02*
X99758333Y-109627247D01*
X99758333Y-109627247D02*
X99758333Y-109865342D01*
X99758333Y-109865342D02*
X99710714Y-109960580D01*
X99710714Y-109960580D02*
X99663095Y-110008200D01*
X99663095Y-110008200D02*
X99567857Y-110055819D01*
X99567857Y-110055819D02*
X99282143Y-110055819D01*
X99282143Y-110055819D02*
X99186905Y-110008200D01*
X99186905Y-110008200D02*
X99139286Y-109960580D01*
D13*
%TO.C,R3*%
X130525000Y-81265000D02*
X130525000Y-85105000D01*
X132365000Y-81265000D02*
X132365000Y-85105000D01*
D14*
%TO.C,D4*%
X138470000Y-81619000D02*
X138470000Y-84751000D01*
X138470000Y-81619000D02*
G75*
G02*
X138470000Y-84751000I2506124J-1566000D01*
G01*
D15*
X137870000Y-83185000D02*
G75*
G02*
X137670000Y-83185000I-100000J0D01*
G01*
X137670000Y-83185000D02*
G75*
G02*
X137870000Y-83185000I100000J0D01*
G01*
D13*
%TO.C,SW1*%
X91440000Y-91440000D02*
X105410000Y-91440000D01*
X91440000Y-105410000D02*
X91440000Y-91440000D01*
X105410000Y-91440000D02*
X105410000Y-105410000D01*
X105410000Y-105410000D02*
X91440000Y-105410000D01*
D14*
%TO.C,U1*%
X129286000Y-109855000D02*
X129286000Y-123825000D01*
X131191000Y-107950000D02*
X148336000Y-107950000D01*
X131191000Y-125730000D02*
X148336000Y-125730000D01*
X150241000Y-112345000D02*
X151151272Y-112348728D01*
D10*
X150241000Y-123825000D02*
X150241000Y-109855000D01*
D14*
X150241000Y-123825000D02*
X150241000Y-109855000D01*
X151151000Y-121344000D02*
X150241000Y-121344000D01*
X151651000Y-112848728D02*
X151651000Y-120844000D01*
X129286000Y-109855000D02*
G75*
G02*
X131191000Y-107950000I1905001J-1D01*
G01*
X131191000Y-125730000D02*
G75*
G02*
X129286000Y-123825000I0J1905000D01*
G01*
X148336000Y-107950000D02*
G75*
G02*
X150241000Y-109855000I-1J-1905001D01*
G01*
X150241000Y-123825000D02*
G75*
G02*
X148336000Y-125730000I-1905000J0D01*
G01*
X151151272Y-112348728D02*
G75*
G02*
X151650999Y-112848728I-291J-500018D01*
G01*
X151651000Y-120844000D02*
G75*
G02*
X151151000Y-121344000I-500000J0D01*
G01*
D16*
X149372000Y-109033000D02*
G75*
G02*
X148868000Y-109033000I-252000J0D01*
G01*
X148868000Y-109033000D02*
G75*
G02*
X149372000Y-109033000I252000J0D01*
G01*
X150252000Y-107890000D02*
G75*
G02*
X149748000Y-107890000I-252000J0D01*
G01*
X149748000Y-107890000D02*
G75*
G02*
X150252000Y-107890000I252000J0D01*
G01*
D14*
%TO.C,D3*%
X122595000Y-81619000D02*
X122595000Y-84751000D01*
X122595000Y-81619000D02*
G75*
G02*
X122595000Y-84751000I2506124J-1566000D01*
G01*
D15*
X121995000Y-83185000D02*
G75*
G02*
X121795000Y-83185000I-100000J0D01*
G01*
X121795000Y-83185000D02*
G75*
G02*
X121995000Y-83185000I100000J0D01*
G01*
D13*
%TO.C,R2*%
X114650000Y-81265000D02*
X114650000Y-85105000D01*
X116490000Y-81265000D02*
X116490000Y-85105000D01*
%TO.C,SW4*%
X110490000Y-110490000D02*
X124460000Y-110490000D01*
X110490000Y-124460000D02*
X110490000Y-110490000D01*
X124460000Y-110490000D02*
X124460000Y-124460000D01*
X124460000Y-124460000D02*
X110490000Y-124460000D01*
D14*
%TO.C,D1*%
X91480000Y-81619000D02*
X91480000Y-84751000D01*
X91480000Y-81619000D02*
G75*
G02*
X91480000Y-84751000I2506124J-1566000D01*
G01*
D15*
X90880000Y-83185000D02*
G75*
G02*
X90680000Y-83185000I-100000J0D01*
G01*
X90680000Y-83185000D02*
G75*
G02*
X90880000Y-83185000I100000J0D01*
G01*
D14*
%TO.C,D2*%
X107355000Y-81619000D02*
X107355000Y-84751000D01*
X107355000Y-81619000D02*
G75*
G02*
X107355000Y-84751000I2506124J-1566000D01*
G01*
D15*
X106755000Y-83185000D02*
G75*
G02*
X106555000Y-83185000I-100000J0D01*
G01*
X106555000Y-83185000D02*
G75*
G02*
X106755000Y-83185000I100000J0D01*
G01*
D13*
%TO.C,R4*%
X146400000Y-81265000D02*
X146400000Y-85105000D01*
X148240000Y-81265000D02*
X148240000Y-85105000D01*
%TO.C,R1*%
X98775000Y-81265000D02*
X98775000Y-85105000D01*
X100615000Y-81265000D02*
X100615000Y-85105000D01*
%TO.C,SW2*%
X110490000Y-91440000D02*
X124460000Y-91440000D01*
X110490000Y-105410000D02*
X110490000Y-91440000D01*
X124460000Y-91440000D02*
X124460000Y-105410000D01*
X124460000Y-105410000D02*
X110490000Y-105410000D01*
%TO.C,SW3*%
X91440000Y-110490000D02*
X105410000Y-110490000D01*
X91440000Y-124460000D02*
X91440000Y-110490000D01*
X105410000Y-110490000D02*
X105410000Y-124460000D01*
X105410000Y-124460000D02*
X91440000Y-124460000D01*
%TD*%
M02*
