%TF.GenerationSoftware,KiCad,Pcbnew,9.0.3*%
%TF.CreationDate,2025-07-28T00:11:00-05:00*%
%TF.ProjectId,eesa-pathfinder,65657361-2d70-4617-9468-66696e646572,rev?*%
%TF.SameCoordinates,Original*%
%TF.FileFunction,Copper,L1,Top*%
%TF.FilePolarity,Positive*%
%FSLAX46Y46*%
G04 Gerber Fmt 4.6, Leading zero omitted, Abs format (unit mm)*
G04 Created by KiCad (PCBNEW 9.0.3) date 2025-07-28 00:11:00*
%MOMM*%
%LPD*%
G01*
G04 APERTURE LIST*
G04 Aperture macros list*
%AMRoundRect*
0 Rectangle with rounded corners*
0 $1 Rounding radius*
0 $2 $3 $4 $5 $6 $7 $8 $9 X,Y pos of 4 corners*
0 Add a 4 corners polygon primitive as box body*
4,1,4,$2,$3,$4,$5,$6,$7,$8,$9,$2,$3,0*
0 Add four circle primitives for the rounded corners*
1,1,$1+$1,$2,$3*
1,1,$1+$1,$4,$5*
1,1,$1+$1,$6,$7*
1,1,$1+$1,$8,$9*
0 Add four rect primitives between the rounded corners*
20,1,$1+$1,$2,$3,$4,$5,0*
20,1,$1+$1,$4,$5,$6,$7,0*
20,1,$1+$1,$6,$7,$8,$9,0*
20,1,$1+$1,$8,$9,$2,$3,0*%
G04 Aperture macros list end*
%TA.AperFunction,ComponentPad*%
%ADD10C,1.400000*%
%TD*%
%TA.AperFunction,ComponentPad*%
%ADD11C,1.815000*%
%TD*%
%TA.AperFunction,ComponentPad*%
%ADD12R,1.815000X1.815000*%
%TD*%
%TA.AperFunction,ComponentPad*%
%ADD13C,2.200000*%
%TD*%
%TA.AperFunction,SMDPad,CuDef*%
%ADD14RoundRect,0.152400X0.609600X-1.063600X0.609600X1.063600X-0.609600X1.063600X-0.609600X-1.063600X0*%
%TD*%
%TA.AperFunction,ComponentPad*%
%ADD15C,1.524000*%
%TD*%
%TA.AperFunction,SMDPad,CuDef*%
%ADD16RoundRect,0.152400X-0.609600X1.063600X-0.609600X-1.063600X0.609600X-1.063600X0.609600X1.063600X0*%
%TD*%
%TA.AperFunction,Conductor*%
%ADD17C,0.200000*%
%TD*%
G04 APERTURE END LIST*
D10*
%TO.P,R3,1*%
%TO.N,Net-(D3-PadA)*%
X131445000Y-80645000D03*
%TO.P,R3,2*%
%TO.N,LED3*%
X131445000Y-85725000D03*
%TD*%
D11*
%TO.P,D4,A*%
%TO.N,Net-(D4-PadA)*%
X142240000Y-83185000D03*
D12*
%TO.P,D4,C*%
%TO.N,GND*%
X139700000Y-83185000D03*
%TD*%
D13*
%TO.P,SW1,1,1*%
%TO.N,button1*%
X100965000Y-93345000D03*
%TO.P,SW1,2,2*%
%TO.N,GND*%
X94615000Y-95885000D03*
%TD*%
D14*
%TO.P,U1,1,GPIO26/ADC0/A0*%
%TO.N,button1*%
X147320000Y-108385000D03*
D15*
X147320000Y-109220000D03*
D14*
%TO.P,U1,2,GPIO27/ADC1/A1*%
%TO.N,button2*%
X144780000Y-108385000D03*
D15*
X144780000Y-109220000D03*
D14*
%TO.P,U1,3,GPIO28/ADC2/A2*%
%TO.N,button3*%
X142240000Y-108385000D03*
D15*
X142240000Y-109220000D03*
D14*
%TO.P,U1,4,GPIO29/ADC3/A3*%
%TO.N,LED1*%
X139700000Y-108385000D03*
D15*
X139700000Y-109220000D03*
D14*
%TO.P,U1,5,GPIO6/SDA*%
%TO.N,LED2*%
X137160000Y-108385000D03*
D15*
X137160000Y-109220000D03*
D14*
%TO.P,U1,6,GPIO7/SCL*%
%TO.N,LED3*%
X134620000Y-108385000D03*
D15*
X134620000Y-109220000D03*
D14*
%TO.P,U1,7,GPIO0/TX*%
%TO.N,LED4*%
X132080000Y-108385000D03*
D15*
X132080000Y-109220000D03*
%TO.P,U1,8,GPIO1/RX*%
%TO.N,unconnected-(U1-GPIO1{slash}RX-Pad8)*%
X132080000Y-124460000D03*
D16*
X132080000Y-125295000D03*
D15*
%TO.P,U1,9,GPIO2/SCK*%
%TO.N,unconnected-(U1-GPIO2{slash}SCK-Pad9)*%
X134620000Y-124460000D03*
D16*
X134620000Y-125295000D03*
D15*
%TO.P,U1,10,GPIO4/MISO*%
%TO.N,button4*%
X137160000Y-124460000D03*
D16*
X137160000Y-125295000D03*
D15*
%TO.P,U1,11,GPIO3/MOSI*%
%TO.N,unconnected-(U1-GPIO3{slash}MOSI-Pad11)*%
X139700000Y-124460000D03*
D16*
X139700000Y-125295000D03*
D15*
%TO.P,U1,12,3V3*%
%TO.N,unconnected-(U1-3V3-Pad12)*%
X142240000Y-124460000D03*
D16*
X142240000Y-125295000D03*
D15*
%TO.P,U1,13,GND*%
%TO.N,GND*%
X144780000Y-124460000D03*
D16*
X144780000Y-125295000D03*
D15*
%TO.P,U1,14,VBUS*%
%TO.N,unconnected-(U1-VBUS-Pad14)*%
X147320000Y-124460000D03*
D16*
X147320000Y-125295000D03*
%TD*%
D11*
%TO.P,D3,A*%
%TO.N,Net-(D3-PadA)*%
X126365000Y-83185000D03*
D12*
%TO.P,D3,C*%
%TO.N,GND*%
X123825000Y-83185000D03*
%TD*%
D10*
%TO.P,R2,1*%
%TO.N,Net-(D2-PadA)*%
X115570000Y-80645000D03*
%TO.P,R2,2*%
%TO.N,LED2*%
X115570000Y-85725000D03*
%TD*%
D13*
%TO.P,SW4,1,1*%
%TO.N,button4*%
X120015000Y-112395000D03*
%TO.P,SW4,2,2*%
%TO.N,GND*%
X113665000Y-114935000D03*
%TD*%
D11*
%TO.P,D1,A*%
%TO.N,Net-(D1-PadA)*%
X95250000Y-83185000D03*
D12*
%TO.P,D1,C*%
%TO.N,GND*%
X92710000Y-83185000D03*
%TD*%
D11*
%TO.P,D2,A*%
%TO.N,Net-(D2-PadA)*%
X111125000Y-83185000D03*
D12*
%TO.P,D2,C*%
%TO.N,GND*%
X108585000Y-83185000D03*
%TD*%
D10*
%TO.P,R4,1*%
%TO.N,Net-(D4-PadA)*%
X147320000Y-80645000D03*
%TO.P,R4,2*%
%TO.N,LED4*%
X147320000Y-85725000D03*
%TD*%
%TO.P,R1,1*%
%TO.N,Net-(D1-PadA)*%
X99695000Y-80645000D03*
%TO.P,R1,2*%
%TO.N,LED1*%
X99695000Y-85725000D03*
%TD*%
D13*
%TO.P,SW2,1,1*%
%TO.N,button2*%
X120015000Y-93345000D03*
%TO.P,SW2,2,2*%
%TO.N,GND*%
X113665000Y-95885000D03*
%TD*%
%TO.P,SW3,1,1*%
%TO.N,button3*%
X100965000Y-112395000D03*
%TO.P,SW3,2,2*%
%TO.N,GND*%
X94615000Y-114935000D03*
%TD*%
D17*
%TO.N,Net-(D1-PadA)*%
X97790000Y-80645000D02*
X95250000Y-83185000D01*
X99695000Y-80645000D02*
X97790000Y-80645000D01*
%TO.N,GND*%
X108585000Y-83185000D02*
X108585000Y-90805000D01*
X94615000Y-85090000D02*
X92710000Y-83185000D01*
X108585000Y-83185000D02*
X109793500Y-84393500D01*
X131314000Y-110994000D02*
X144780000Y-124460000D01*
X94615000Y-114935000D02*
X94615000Y-95885000D01*
X122616500Y-84393500D02*
X123825000Y-83185000D01*
X113665000Y-114935000D02*
X117606000Y-110994000D01*
X92710000Y-83185000D02*
X93918500Y-84393500D01*
X117606000Y-110994000D02*
X131314000Y-110994000D01*
X123825000Y-83185000D02*
X125033500Y-84393500D01*
X138491500Y-84393500D02*
X139700000Y-83185000D01*
X125033500Y-84393500D02*
X138491500Y-84393500D01*
X107376500Y-84393500D02*
X108585000Y-83185000D01*
X94615000Y-95885000D02*
X94615000Y-85090000D01*
X108585000Y-90805000D02*
X113665000Y-95885000D01*
X93918500Y-84393500D02*
X107376500Y-84393500D01*
X109793500Y-84393500D02*
X122616500Y-84393500D01*
%TO.N,Net-(D2-PadA)*%
X113030000Y-83185000D02*
X115570000Y-80645000D01*
X111125000Y-83185000D02*
X113030000Y-83185000D01*
%TO.N,Net-(D3-PadA)*%
X126365000Y-83185000D02*
X128905000Y-83185000D01*
X128905000Y-83185000D02*
X131445000Y-80645000D01*
%TO.N,LED1*%
X132759630Y-101202000D02*
X108001314Y-101202000D01*
X99564000Y-93925314D02*
X99564000Y-85856000D01*
X139700000Y-109220000D02*
X139700000Y-108142370D01*
X101545314Y-94746000D02*
X100384686Y-94746000D01*
X100384686Y-94746000D02*
X99564000Y-93925314D01*
X139700000Y-108142370D02*
X132759630Y-101202000D01*
X108001314Y-101202000D02*
X101545314Y-94746000D01*
X99564000Y-85856000D02*
X99695000Y-85725000D01*
%TO.N,button1*%
X139953630Y-100776000D02*
X108396000Y-100776000D01*
X147320000Y-108142370D02*
X139953630Y-100776000D01*
X108396000Y-100776000D02*
X100965000Y-93345000D01*
X147320000Y-109220000D02*
X147320000Y-108142370D01*
%TO.N,button2*%
X144780000Y-109220000D02*
X145843000Y-110283000D01*
X148383000Y-109660310D02*
X148383000Y-107129374D01*
X145843000Y-110283000D02*
X147760310Y-110283000D01*
X147760310Y-110283000D02*
X148383000Y-109660310D01*
X134598626Y-93345000D02*
X120015000Y-93345000D01*
X148383000Y-107129374D02*
X134598626Y-93345000D01*
%TO.N,button3*%
X100965000Y-112395000D02*
X103077000Y-110283000D01*
X103077000Y-110283000D02*
X141177000Y-110283000D01*
X141177000Y-110283000D02*
X142240000Y-109220000D01*
%TO.N,Net-(D4-PadA)*%
X142240000Y-83185000D02*
X144780000Y-83185000D01*
X144780000Y-83185000D02*
X147320000Y-80645000D01*
%TO.N,button4*%
X125095000Y-112395000D02*
X137160000Y-124460000D01*
X120015000Y-112395000D02*
X125095000Y-112395000D01*
%TD*%
M02*
