M48
; DRILL file {KiCad 9.0.3} date 2025-07-28T00:11:13-0500
; FORMAT={-:-/ absolute / metric / decimal}
; #@! TF.CreationDate,2025-07-28T00:11:13-05:00
; #@! TF.GenerationSoftware,Kicad,Pcbnew,9.0.3
; #@! TF.FileFunction,Plated,1,2,PTH
FMAT,2
METRIC
; #@! TA.AperFunction,Plated,PTH,ComponentDrill
T1C0.700
; #@! TA.AperFunction,Plated,PTH,ComponentDrill
T2C0.889
; #@! TA.AperFunction,Plated,PTH,ComponentDrill
T3C1.210
; #@! TA.AperFunction,Plated,PTH,ComponentDrill
T4C1.500
%
G90
G05
T1
X99.695Y-80.645
X99.695Y-85.725
X115.57Y-80.645
X115.57Y-85.725
X131.445Y-80.645
X131.445Y-85.725
X147.32Y-80.645
X147.32Y-85.725
T2
X132.08Y-109.22
X132.08Y-124.46
X134.62Y-109.22
X134.62Y-124.46
X137.16Y-109.22
X137.16Y-124.46
X139.7Y-109.22
X139.7Y-124.46
X142.24Y-109.22
X142.24Y-124.46
X144.78Y-109.22
X144.78Y-124.46
X147.32Y-109.22
X147.32Y-124.46
T3
X92.71Y-83.185
X95.25Y-83.185
X108.585Y-83.185
X111.125Y-83.185
X123.825Y-83.185
X126.365Y-83.185
X139.7Y-83.185
X142.24Y-83.185
T4
X94.615Y-95.885
X94.615Y-114.935
X100.965Y-93.345
X100.965Y-112.395
X113.665Y-95.885
X113.665Y-114.935
X120.015Y-93.345
X120.015Y-112.395
M30
